<svg id="Layer_1" data-name="Layer 1" xmlns="http://www.w3.org/2000/svg" viewBox="0 0 892.44 242.57"><defs><style>.cls-1{fill:#fff;}.cls-2{fill:#50b748;}.cls-10,.cls-11,.cls-13,.cls-2,.cls-4,.cls-5,.cls-7,.cls-8{isolation:isolate;}.cls-11,.cls-2,.cls-5,.cls-8{opacity:0.8;}.cls-3{fill:#2db24a;}.cls-4{fill:#7dc257;}.cls-10,.cls-13,.cls-4,.cls-7{opacity:0.55;}.cls-5{fill:#ffcb04;}.cls-6{fill:#fdbc11;}.cls-7{fill:#ffd451;}.cls-10,.cls-8,.cls-9{fill:#4c9aff;}.cls-11,.cls-12,.cls-13{fill:#ee4526;}</style></defs><polygon class="cls-1" points="223.04 42.7 223.04 63.99 190.65 76.02 223.04 88.48 223.04 109.78 190.65 121.81 223.04 134.27 223.04 155.56 190.65 167.59 223.04 180.06 223.04 201.35 112.05 242.57 0 203.14 0 180.06 30.98 168.25 0 157.35 0 134.27 30.98 122.47 0 111.56 0 88.48 30.98 76.68 0 65.78 0 42.7 112.05 0 223.04 42.7"/><path d="M255.9,52l19.12,28,19.13-28h11.91l-25.24,36,24.47,35H293.38L275,95.94l-18.34,27h-12l24.56-35L243.87,52Z"/><path d="M361.19,113.07V123H313.86V52h46.4v9.92H324.73V82h30.76v9.3H324.73v21.73Z"/><path d="M383.27,72.94v50H372.36V52h8.54l39.45,51.2V52.05h11v70.89h-9Z"/><path d="M475.49,123.44a29.58,29.58,0,0,1-13.45-3,33.77,33.77,0,0,1-10.43-8.1,36.36,36.36,0,0,1-6.74-11.55,38.47,38.47,0,0,1-2.39-13.3A37.45,37.45,0,0,1,445,73.84,38,38,0,0,1,452,62.34a33.3,33.3,0,0,1,10.49-7.93,29.78,29.78,0,0,1,13.24-3,28.77,28.77,0,0,1,13.5,3.16,34,34,0,0,1,10.39,8.25,38.73,38.73,0,0,1,6.54,38.33,35.83,35.83,0,0,1-6.94,11.45,34.07,34.07,0,0,1-10.54,7.94A29.53,29.53,0,0,1,475.49,123.44Zm-21.94-36a30.49,30.49,0,0,0,1.56,9.7,26.43,26.43,0,0,0,4.41,8.3,21.7,21.7,0,0,0,7,5.75,19.1,19.1,0,0,0,9.11,2.15,18.63,18.63,0,0,0,9.28-2.25,22.23,22.23,0,0,0,6.85-6,27.12,27.12,0,0,0,4.26-8.3,30.92,30.92,0,0,0,1.46-9.4,30.2,30.2,0,0,0-1.56-9.75,26.05,26.05,0,0,0-4.41-8.2,22.09,22.09,0,0,0-6.9-5.7,18.57,18.57,0,0,0-9-2.15,19,19,0,0,0-9.31,2.25,22.63,22.63,0,0,0-6.95,5.85A26.56,26.56,0,0,0,455,78,30.58,30.58,0,0,0,453.55,87.44Z"/><path d="M530.73,72.94v50H519.82V52h8.54l39.45,51.2V52.05h11v70.89h-9Z"/><path d="M635.09,68.64a15.51,15.51,0,0,0-2.82-2.35A28.19,28.19,0,0,0,628,63.94a30.56,30.56,0,0,0-5.43-1.79,26.45,26.45,0,0,0-6.08-.71q-6.88,0-10.14,2.6a8.71,8.71,0,0,0-3.25,7.2,8,8,0,0,0,1,4.25,8.83,8.83,0,0,0,3.21,2.86,24.34,24.34,0,0,0,5.33,2.2c2.14.66,4.63,1.35,7.48,2a84,84,0,0,1,9.46,2.9,26.39,26.39,0,0,1,7.14,3.9,15.81,15.81,0,0,1,4.51,5.65,18.73,18.73,0,0,1,1.61,8.15,20.1,20.1,0,0,1-2,9.3,17.26,17.26,0,0,1-5.43,6.35,23.46,23.46,0,0,1-8,3.6,40,40,0,0,1-9.8,1.15,47.35,47.35,0,0,1-15.26-2.41,43.07,43.07,0,0,1-13.22-7.12l5-9.6a22.61,22.61,0,0,0,3.64,2.9,33.2,33.2,0,0,0,5.54,3,49.84,49.84,0,0,0,6.83,2.3,31.09,31.09,0,0,0,7.67,1q6.42,0,9.93-2.3a7.61,7.61,0,0,0,3.5-6.8,7.44,7.44,0,0,0-1.31-4.5,11.31,11.31,0,0,0-3.73-3.25,32.82,32.82,0,0,0-6-2.45q-3.51-1.09-7.94-2.3a78.71,78.71,0,0,1-9-3,21.82,21.82,0,0,1-6.36-3.75A14.54,14.54,0,0,1,593,80.16,17.49,17.49,0,0,1,591.72,73a21.1,21.1,0,0,1,2-9.25A19.75,19.75,0,0,1,599,57a23.05,23.05,0,0,1,7.94-4.15,33.65,33.65,0,0,1,9.92-1.4,35.5,35.5,0,0,1,12.9,2.3,42.56,42.56,0,0,1,10.39,5.7Z"/><path d="M703.72,61.84H680.81v61.1H669.89V61.84h-23V51.92h56.88Z"/><path d="M726.44,52H736l27.18,71H751.68l-7.28-19.3H717.8l-7.19,19.3H699.06Zm15.87,43.39-11.12-30.5-11.45,30.5Z"/><path d="M764.79,86.94A38,38,0,0,1,767,74.19a35.37,35.37,0,0,1,6.55-11.4,33.24,33.24,0,0,1,10.53-8.15,31,31,0,0,1,14.1-3.08,29.29,29.29,0,0,1,16.13,4.3A27.69,27.69,0,0,1,824.39,67L815.84,73a19.92,19.92,0,0,0-3.49-5.4,17,17,0,0,0-4.46-3.5,19.38,19.38,0,0,0-5-1.85,25.27,25.27,0,0,0-5.05-.55,19.46,19.46,0,0,0-9.52,2.25,21.36,21.36,0,0,0-6.84,6,26.67,26.67,0,0,0-4.17,8.3,31.2,31.2,0,0,0-1.41,9.2,29.68,29.68,0,0,0,1.65,9.92,26.74,26.74,0,0,0,4.61,8.3,22.71,22.71,0,0,0,7,5.75,18.92,18.92,0,0,0,8.93,2.15,22.09,22.09,0,0,0,5.19-.65,19.12,19.12,0,0,0,5.15-2.1,20.56,20.56,0,0,0,4.56-3.65,18.28,18.28,0,0,0,3.45-5.3l9,5.3a21.91,21.91,0,0,1-4.67,7,29.68,29.68,0,0,1-6.79,5.15,34.47,34.47,0,0,1-8,3.2,32.78,32.78,0,0,1-8.3,1.1,28,28,0,0,1-13.3-3.2A35.3,35.3,0,0,1,774,112.06a38.68,38.68,0,0,1-6.79-11.71A37.91,37.91,0,0,1,764.79,86.94Z"/><path d="M835.55,122.94V52.05h10.91V88.54L878.89,52h12L863.71,83.31l28.77,39.6H880.31L857,90.25l-10.58,11.3V123Z"/><polygon class="cls-2" points="0 180.06 112.05 137.36 223.04 180.06 112.05 220.21 0 180.06"/><polygon class="cls-3" points="29.08 190.47 112.05 157.75 200.1 188.34 223.04 180.06 112.05 137.36 0 180.06 29.08 190.47"/><polygon class="cls-4" points="0 180.06 0 203.14 112.05 242.57 223.04 201.35 223.04 180.06 112.05 220.21 0 180.06"/><polygon class="cls-5" points="0 134.27 112.05 91.57 223.04 134.27 112.05 174.42 0 134.27"/><polygon class="cls-6" points="29.08 144.68 112.05 111.97 200.1 142.56 223.04 134.27 112.05 91.57 0 134.27 29.08 144.68"/><polygon class="cls-7" points="0 134.27 0 157.35 112.05 196.78 223.04 155.56 223.04 134.27 112.05 174.42 0 134.27"/><polygon class="cls-8" points="0 88.48 112.05 45.79 223.04 88.48 112.05 128.63 0 88.48"/><polygon class="cls-9" points="29.08 98.89 112.05 66.18 200.1 96.77 223.04 88.48 112.05 45.79 0 88.48 29.08 98.89"/><polygon class="cls-10" points="0 88.48 0 111.56 112.05 151 223.04 109.78 223.04 88.48 112.05 128.63 0 88.48"/><polygon class="cls-11" points="0 42.7 112.05 0 223.04 42.7 112.05 82.84 0 42.7"/><polygon class="cls-12" points="29.08 53.11 112.05 20.39 200.1 50.98 223.04 42.7 112.05 0 0 42.7 29.08 53.11"/><polygon class="cls-13" points="0 42.7 0 65.78 112.05 105.21 223.04 63.99 223.04 42.7 112.05 82.84 0 42.7"/><path d="M300.21,143h7.28l17.17,50h-6.83L309,165c-1.81-5.6-3.45-11.08-5.07-16.84h-.31c-1.57,5.79-3.2,11.24-5,16.84L289.63,193h-6.56Zm-8.13,29.67h23.34v5.07H292.08Z"/><path d="M343.26,186.41l3.86-4.36a20,20,0,0,0,14,6.19c6.65,0,10.59-3.28,10.59-8.14,0-5.1-3.67-6.73-8.45-8.78L356,168.14c-4.72-2-10.27-5.51-10.27-12.86,0-7.63,6.75-13.26,16-13.26a21,21,0,0,1,14.92,6.2l-3.41,4.06a16.34,16.34,0,0,0-11.51-4.69c-5.68,0-9.45,2.83-9.45,7.3,0,4.81,4.43,6.61,8.4,8.27l7.23,3.08c5.87,2.48,10.44,5.93,10.44,13.36,0,7.9-6.61,14.2-17.27,14.2A24.5,24.5,0,0,1,343.26,186.41Z"/><path d="M386.83,181.47V161h-5.58v-4.73l5.86-.37.76-10.37h5.31V155.9h10.18V161H393.21v20.58c0,4.51,1.48,7.14,5.81,7.14a12.55,12.55,0,0,0,4.27-1l1.23,4.73a23.06,23.06,0,0,1-7,1.36C389.54,193.86,386.83,188.83,386.83,181.47Z"/><path d="M407.9,183.3c0-8.06,7.06-12.09,23.06-13.8,0-4.76-1.62-9.35-7.75-9.35-4.34,0-8.26,2-11.19,4l-2.49-4.29c3.45-2.23,8.72-4.84,14.75-4.84,9.16,0,13,6,13,15.23V193h-5.25l-.53-4.41h-.21c-3.61,2.92-7.75,5.33-12.42,5.33C412.62,193.86,407.9,190,407.9,183.3Zm23.06.58V173.6c-12.58,1.5-16.83,4.52-16.83,9.27,0,4.2,2.89,5.91,6.58,5.91s6.62-1.75,10.25-4.86Z"/><path d="M446.37,174.45c0-12.34,8.46-19.47,18.08-19.47a15.93,15.93,0,0,1,10.95,4.35l-3.25,4.14c-2.19-1.94-4.52-3.27-7.45-3.27-6.8,0-11.75,5.78-11.75,14.25s4.71,14.16,11.61,14.16a13.58,13.58,0,0,0,8.82-3.69l2.75,4.2a18.31,18.31,0,0,1-12.14,4.7C454,193.86,446.37,186.71,446.37,174.45Z"/><path d="M484.39,138.67h6.23V175.4h.21l16-19.5h7l-12.57,14.87L515.56,193h-6.95l-10.95-17.78-7,8.07V193h-6.23Z"/><path d="M538.67,143h6.45v50h-6.45Z"/><path d="M558.37,155.9h5.25l.55,5.34h.2C568,157.77,571.81,155,577,155c7.92,0,11.47,5,11.47,14.47V193h-6.32V170.36c0-6.9-2.12-9.84-7.09-9.84-3.84,0-6.5,1.93-10.27,5.68V193h-6.32Z"/><path d="M600.63,155.9h5.25l.53,5.34h.21c3.61-3.47,7.44-6.26,12.6-6.26,7.91,0,11.46,5,11.46,14.47V193h-6.33V170.36c0-6.9-2.12-9.84-7.09-9.84-3.83,0-6.49,1.93-10.26,5.68V193h-6.33Z"/><path d="M640.09,174.45c0-12.34,8.2-19.47,17.4-19.47s17.4,7.13,17.4,19.47-8.19,19.41-17.4,19.41S640.09,186.71,640.09,174.45Zm28.23,0c0-8.47-4.38-14.25-10.84-14.25s-10.85,5.78-10.85,14.25,4.38,14.16,10.85,14.16S668.32,182.93,668.32,174.45Z"/><path d="M679,155.9h6.55l7.09,21c1.12,3.62,2.35,7.38,3.47,10.91h.31c1.12-3.53,2.34-7.29,3.46-10.91l7.1-21h6.23L700,193h-7.39Z"/><path d="M716.64,183.3c0-8.06,7.06-12.09,23.05-13.8,0-4.76-1.61-9.35-7.74-9.35-4.34,0-8.26,2-11.19,4l-2.49-4.29C721.71,157.59,727,155,733,155c9.17,0,13,6,13,15.23V193H740.8l-.53-4.41h-.22c-3.61,2.92-7.75,5.33-12.42,5.33C721.35,193.86,716.64,190,716.64,183.3Zm23.05.58V173.6c-12.57,1.5-16.83,4.52-16.83,9.27,0,4.2,2.89,5.91,6.58,5.91s6.62-1.75,10.25-4.86Z"/><path d="M757.92,181.47V161h-5.58v-4.73l5.87-.37.77-10.37h5.3V155.9h10.17V161H764.28v20.58c0,4.51,1.48,7.14,5.81,7.14a12.32,12.32,0,0,0,4.27-1l1.23,4.73a23.06,23.06,0,0,1-7,1.36C760.63,193.86,757.92,188.83,757.92,181.47Z"/><path d="M779.09,174.45c0-12.34,8.13-19.46,17.35-19.46s17.41,7.13,17.41,19.47-8.2,19.4-17.41,19.4S779.09,186.71,779.09,174.45Zm28.23,0c0-8.47-4.38-14.25-10.85-14.25s-10.85,5.78-10.85,14.25,4.38,14.16,10.85,14.16,10.81-5.68,10.81-14.16Z"/><path d="M823.7,155.9H829l.54,6.74h.21c2.63-4.69,6.46-7.66,10.69-7.66a8.74,8.74,0,0,1,4,.77l-1.18,5.49a10.88,10.88,0,0,0-3.62-.61c-3.17,0-7,2.26-9.5,8.52V193h-6.32Z"/></svg>